<?xml version="1.0" encoding="UTF-8"?>
<svg id="Layer_2" data-name="Layer 2" xmlns="http://www.w3.org/2000/svg" viewBox="0 0 920.55 921.26">
  <defs>
    <style>
      .cls-1 {
        fill: #48a3c6;
      }

      .cls-1, .cls-2 {
        fill-rule: evenodd;
      }

      .cls-2 {
        fill: #fefefe;
        stroke: #48a3c6;
        stroke-width: 20;
      }
    </style>
  </defs>
  <g id="Layer_1-2" data-name="Layer 1">
    <g>
      <!-- alternative logo
        <?xml version="1.0" encoding="utf-8"?>
        <svg viewBox="11.2483 19.9552 477.5035 460.0935" width="477.5035" height="460.0935" xmlns="http://www.w3.org/2000/svg">
          <path class="cls-1" d="M 593.27 789.81 C 635.08 772.68 672.99 747.88 705.12 717.05 C 767.72 656.93 808.47 574.13 813.9 481.89 L 593.299 480.166 L 598.649 683.446 L 485.534 544.482 L 485.44 0 C 537.499 0.068 581.848 13.608 593.27 17.309 C 604.871 21.069 668.796 46.031 705.12 70.28 C 811.3 137.25 888.19 246.38 912.4 374.06 C 917.72 402.17 920.55 431.1 920.55 460.63 C 920.55 467.72 920.43 474.8 920.08 481.89 C 912.99 637.44 829.02 772.91 705.12 851.1 C 670.63 872.83 633.07 890.19 593.27 902.24 C 558.9 912.64 522.76 919.25 485.44 921.26 L 485.44 814.96 C 523.35 812.24 559.61 803.5 593.27 789.8 L 593.27 789.81 Z M 593.27 374.06 L 803.86 374.06 C 787.631 309.044 753.406 251.051 706.768 205.809 C 692.615 190.372 649.568 152.604 593.299 134.742 L 593.27 374.06 Z" style="fill: rgb(72, 163, 198); fill-rule: evenodd;" transform="matrix(0.5187210440635681, 0, 0, 0.4990970194339752, 11.243081092834473, 20.25054359436035)"/>
          <path class="cls-2" d="M 435.12 0.12 L 432.21 533.632 L 321.848 533.86 L 138.55 312.05 C 129.46 331.77 122.13 352.56 116.7 374.06 C 114.22 383.86 112.21 393.9 110.56 404.06 C 107.61 422.49 106.07 441.38 106.07 460.63 C 106.07 467.72 106.31 474.8 106.78 481.89 C 108.43 510 113.28 537.17 121.07 563.15 C 152.13 666.26 228.67 749.53 327.29 789.8 C 360.95 803.5 397.21 812.24 435.12 814.96 L 435.12 921.26 C 397.8 919.25 361.77 912.64 327.29 902.24 C 202.45 864.33 99.93 774.92 44.53 658.7 C 26.1 619.96 12.99 578.27 5.91 534.57 C 3.19 517.33 1.3 499.73 0.48 481.89 C 0.24 474.8 0.01 467.72 0.01 460.63 C 0.01 431.1 2.84 402.17 8.16 374.06 C 18.55 319.38 38.51 268.12 66.39 222.05 C 85.64 190.28 108.56 161.11 134.66 134.88 L 201.51 218.38 L 327.539 385.41 L 328.114 29.776 C 335.509 15.21 438.393 -4.241 434.41 0 L 434.88 0 L 435.12 0.12 Z" style="fill: rgb(254, 254, 254); fill-rule: evenodd; stroke: rgb(72, 163, 198); stroke-width: 20px;" transform="matrix(0.5187210440635681, 0, 0, 0.4990970194339752, 11.243083942621638, 20.25054359436035)"/>
        </svg> -->
      <path class="cls-1" d="M 593.27 789.81 C 635.08 772.68 672.99 747.88 705.12 717.05 C 767.72 656.93 808.47 574.13 813.9 481.89 L 593.299 480.166 L 593.299 692.75 L 485.534 692.75 L 485.44 0 C 537.499 0.068 581.848 13.608 593.27 17.309 C 604.871 21.069 668.796 46.031 705.12 70.28 C 811.3 137.25 888.19 246.38 912.4 374.06 C 917.72 402.17 920.55 431.1 920.55 460.63 C 920.55 467.72 920.43 474.8 920.08 481.89 C 912.99 637.44 829.02 772.91 705.12 851.1 C 670.63 872.83 633.07 890.19 593.27 902.24 C 558.9 912.64 522.76 919.25 485.44 921.26 L 485.44 814.96 C 523.35 812.24 559.61 803.5 593.27 789.8 L 593.27 789.81 Z M 593.27 374.06 L 738.873 374.06 L 803.86 374.06 C 787.631 309.044 753.406 251.051 706.768 205.809 C 692.615 190.372 649.568 152.604 593.299 134.742 L 593.27 374.06 Z"/>
      <path class="cls-2" d="M 435.12 0.12000000000000001 L 435.026 658.488 L 138.55 312.05 C 129.46 331.77 122.13 352.56 116.7 374.06 C 114.22 383.86 112.21 393.9 110.56 404.06 C 107.61 422.49 106.07 441.38 106.07 460.63 C 106.07 467.72 106.31 474.8 106.78 481.89 C 108.43 510 113.28 537.17 121.07 563.15 C 152.13 666.26 228.67 749.53 327.29 789.8 C 360.95 803.5 397.21 812.24 435.12 814.96 L 435.12 921.26 C 397.8 919.25 361.77 912.64 327.29 902.24 C 202.45 864.33 99.93 774.92 44.53 658.7 C 26.1 619.96 12.99 578.27 5.91 534.57 C 3.19 517.33 1.3 499.73 0.48000000000000004 481.89 C 0.24000000000000002 474.8 0.01 467.72 0.01 460.63 C 0.01 431.1 2.84 402.17 8.16 374.06 C 18.55 319.38 38.51 268.12 66.39 222.05 C 85.64 190.28 108.56 161.11 134.66 134.88 L 201.51 218.38 L 327.539 385.41 L 328.114 29.776 C 335.509 15.21 438.393 -4.241 434.41 0 L 434.88 0 L 435.12 0.12000000000000001 Z"/>
    </g>
  </g>
</svg>