<?xml version="1.0" encoding="utf-8"?>
<svg viewBox="0 0 500 500" xmlns="http://www.w3.org/2000/svg">
  <g id="Layer_1-2" data-name="Layer 1" transform="matrix(0.518721, 0, 0, 0.499097, 11.243081, 20.250544)" style="">
    <path class="cls-1" d="M 593.27 789.806 C 635.08 772.676 672.99 747.876 705.12 717.046 C 767.72 656.926 808.47 574.126 813.9 481.886 L 593.299 480.162 L 593.299 692.746 L 485.534 692.746 L 485.44 -0.004 C 537.499 0.064 581.848 13.604 593.27 17.305 C 604.871 21.065 668.796 46.027 705.12 70.276 C 811.3 137.246 888.19 246.376 912.4 374.056 C 917.72 402.166 920.55 431.096 920.55 460.626 C 920.55 467.716 920.43 474.796 920.08 481.886 C 912.99 637.436 829.02 772.906 705.12 851.096 C 670.63 872.826 633.07 890.186 593.27 902.236 C 558.9 912.636 522.76 919.246 485.44 921.256 L 485.44 814.956 C 523.35 812.236 559.61 803.496 593.27 789.796 L 593.27 789.806 Z M 593.27 374.056 L 738.873 374.056 L 803.86 374.056 C 787.631 309.04 753.406 251.047 706.768 205.805 C 692.615 190.368 649.568 152.6 593.299 134.738 L 593.27 374.056 Z" style="fill: rgb(72, 163, 198); fill-rule: evenodd;"/>
    <path class="cls-2" d="M 435.12 0.116 L 435.026 658.484 L 138.55 312.046 C 129.46 331.766 122.13 352.556 116.7 374.056 C 114.22 383.856 112.21 393.896 110.56 404.056 C 107.61 422.486 106.07 441.376 106.07 460.626 C 106.07 467.716 106.31 474.796 106.78 481.886 C 108.43 509.996 113.28 537.166 121.07 563.146 C 152.13 666.256 228.67 749.526 327.29 789.796 C 360.95 803.496 397.21 812.236 435.12 814.956 L 435.12 921.256 C 397.8 919.246 361.77 912.636 327.29 902.236 C 202.45 864.326 99.93 774.916 44.53 658.696 C 26.1 619.956 12.99 578.266 5.91 534.566 C 3.19 517.326 1.3 499.726 0.48 481.886 C 0.24 474.796 0.01 467.716 0.01 460.626 C 0.01 431.096 2.84 402.166 8.16 374.056 C 18.55 319.376 38.51 268.116 66.39 222.046 C 85.64 190.276 108.56 161.106 134.66 134.876 L 201.51 218.376 L 327.539 385.406 L 328.114 29.772 C 335.509 15.206 438.393 -4.245 434.41 -0.004 L 434.88 -0.004 L 435.12 0.116 Z" style="fill: rgb(254, 254, 254); fill-rule: evenodd; stroke: rgb(72, 163, 198); stroke-width: 20px;"/>
  </g>
</svg>